<?xml version="1.0" encoding="UTF-8"?>
<svg width="120px" height="120px" viewBox="0 0 120 120" version="1.1" xmlns="http://www.w3.org/2000/svg" xmlns:xlink="http://www.w3.org/1999/xlink">
    <!-- Generator: Sketch 56.2 (81672) - https://sketch.com -->
    <title>已参加</title>
    <desc>Created with Sketch.</desc>
    <defs>
        <rect id="path-1" x="0" y="0" width="120" height="120" rx="8"></rect>
        <linearGradient x1="54.8550285%" y1="-24.1267287%" x2="54.8550285%" y2="129.698165%" id="linearGradient-3">
            <stop stop-color="#C4029D" offset="0%"></stop>
            <stop stop-color="#7C02C1" offset="100%"></stop>
        </linearGradient>
    </defs>
    <g id="Hubskins-PC-1.3" stroke="none" stroke-width="1" fill="none" fill-rule="evenodd">
        <g id="1.3-2-2-ROLL福利-已参加" transform="translate(-994.000000, -452.000000)">
            <g id="banner部分" transform="translate(170.000000, 272.000000)">
                <g id="已参加" transform="translate(824.000000, 180.000000)">
                    <mask id="mask-2" fill="white">
                        <use xlink:href="#path-1"></use>
                    </mask>
                    <g id="蒙版" fill-rule="nonzero"></g>
                    <g id="已使用" mask="url(#mask-2)">
                        <path d="M66.5402161,18.549205 L67.2604094,20.3694541 C68.7007961,19.8083246 69.5763253,20.5063149 70.1411828,19.2471953 C71.1579263,20.506315 73.0219561,19.6714638 74.5470714,19.6714638 C74.5470714,19.6714638 73.6856637,18.9734735 74.1093068,18.6860659 C74.8295002,18.9597876 75.2672647,18.8229267 75.4084792,19.2471953 C74.3917356,19.6714638 74.6882859,18.9734735 74.2505212,19.1103345 C74.6882857,20.0957325 75.8321222,20.0957325 77.1312945,19.534603 C76.9900802,19.1103345 77.272509,18.4123442 77.272509,18.4123442 C76.8347445,18.549205 76.8347445,18.549205 76.5523157,18.1386225 L76.114551,17.1532245 C75.3943576,17.9880755 73.7986351,18.1386225 73.0078347,17.2900854 C72.5700702,17.4269462 72.7254059,17.9880757 72.7254059,17.9880757 C72.4429771,17.1532245 71.1438049,17.9880757 70.8472547,18.549205 C70.988469,17.2900853 69.2656537,19.384056 68.3195172,19.2471953 C67.9523598,18.4807746 67.669931,18.4807746 67.6699312,18.1933668 C67.4016239,18.3302276 67.0344664,17.9196451 66.5402161,18.549205 L66.5402161,18.549205 Z M77.1132171,18.225301 C77.1132171,18.4769621 77.4716239,19.0054506 77.1132171,19.2571118 C77.1132171,19.2571118 76.5576866,19.5087729 76.1992797,18.7537895 L77.1132171,18.225301 Z M80.8777691,17.1532245 C79.6862252,17.609647 79.520733,17.1532245 78.3457383,17.609647 C78.8587641,18.6697253 79.7027744,17.7568801 79.5372822,18.9641916 L78.5277798,19.2586578 L79.0408056,20.3187361 C79.8848159,20.6132023 79.3717901,19.5678473 80.2323495,18.6697253 C80.7453753,19.7298036 81.7548779,19.2733811 82.5988882,19.5678473 C82.9298727,18.8169585 81.0763598,18.9641916 81.4073443,18.2133028 C81.3907951,18.2133028 80.8777691,18.3605358 80.8777691,17.1532245 L80.8777691,17.1532245 Z M65.4184778,19.2973775 C63.7320809,19.5304377 64.6923903,20.1363939 64.4581686,20.3694541 C64.6923903,20.3694541 64.9266123,20.3694541 65.1842561,20.2529241 C64.9500344,19.8916809 65.6526998,19.6586208 65.4184778,19.2973775 L65.4184778,19.2973775 Z M144.587431,55.546008 C144.878673,56.7626234 144.733052,58.2017904 145.635904,59.4184058 C146.08733,59.1216703 146.829999,59.1216703 147.121242,59.5667735 C146.669816,59.863509 146.378573,59.4184058 145.635904,60.1750813 C146.232952,61.6884321 145.781526,62.8308637 146.378573,64.3442146 C147.121242,64.4925823 147.572668,64.0474791 147.863911,64.4925824 C147.412485,64.7893179 147.718289,65.2492578 147.718289,66.0059333 C145.781526,66.9109764 146.669816,68.8100834 147.572668,70.931742 C146.829999,71.5400498 148.169716,72.4450929 146.975621,72.7566652 C147.572668,73.5133406 147.718289,72.9050329 148.024094,73.2166051 C147.732852,73.3649728 147.878473,73.8249129 147.878473,73.9732806 C148.47552,73.8249129 149.363811,72.4599297 149.960858,73.0682374 C149.960858,72.6082975 150.106479,71.9999897 150.252101,71.5548865 C149.800675,71.8516221 149.509432,72.1631943 149.058006,71.8516219 L149.800675,71.2433143 C149.655053,68.5875319 149.946296,65.5608301 149.203627,62.8308637 C147.718289,63.4391714 148.60658,61.3175128 147.121242,61.0059405 C147.572668,60.709205 147.266863,60.2492651 147.572668,59.9376929 C147.863911,61.1543082 148.169716,60.6943683 149.058006,60.0860607 C148.169716,59.017813 148.169716,58.2611375 148.460958,57.4302783 C148.315337,57.5786459 148.169716,57.7270138 147.863911,57.7270136 C147.572668,57.2670737 148.009532,56.9703382 148.752201,56.3620306 C147.703727,55.1454152 147.558106,53.1721242 146.961059,51.7329572 C146.21839,52.3412649 146.815437,53.2463081 146.364011,53.5578803 C145.766963,52.8012049 146.509632,52.8012049 146.072768,52.3412649 C146.072768,52.3412649 145.330099,52.1928973 144.878673,52.6380004 C144.587431,52.1780605 144.733052,50.6647096 145.927147,50.5163418 C145.927147,50.5163418 145.475721,50.8130773 145.781526,51.2730172 C146.524195,50.6647095 146.232952,50.2047695 146.669816,49.908034 C145.621342,49.4480941 146.072768,48.3946831 145.475721,47.4748033 C144.733052,48.083111 144.281626,47.7715388 143.990383,48.0831109 C144.136004,47.3264355 144.136004,47.3264355 144.878673,46.7181278 L144.281626,45.8130846 C145.024295,45.9614522 144.733052,45.5163491 145.024295,45.204777 C143.975821,43.9881616 143.393336,42.4006268 142.796288,40.8872758 C142.344862,41.1840113 141.602193,41.1840113 141.31095,41.4955836 L140.713903,40.7389081 L139.519808,41.8071558 C140.116855,42.5638313 140.568282,42.2670958 140.859524,42.712199 L140.116855,43.3205067 C142.053619,46.5104131 142.505046,49.6112987 143.611768,52.727021 L144.063194,52.4302855 C143.320525,53.0385933 145.111668,53.6469009 143.917572,53.9436364 C144.136004,54.1661881 144.51462,54.4035763 144.733052,54.7003118 C144.878673,54.4777602 145.024295,54.2403719 145.257289,54.5519442 L145.548532,55.0118841 C145.330099,55.0860679 145.024295,55.0118841 144.805863,54.9377003 L144.805863,55.1602519 C144.733052,55.1602519 144.733052,55.1602519 144.587431,55.546008 L144.587431,55.546008 Z M147.30179,62.1804387 L148.105642,62.716477 L147.105728,63.2525153 C147.30179,62.7269875 146.713605,62.4011604 147.30179,62.1804387 L147.30179,62.1804387 Z M143.255659,48.2434438 C142.896261,47.8381467 142.518894,47.5766646 142.896261,47.1713673 C143.255659,47.5766645 143.812725,47.3021083 143.812725,47.3021084 C143.435358,47.5766646 143.812725,47.9688877 143.255659,48.2434438 Z M141.712867,46.0992908 C141.412067,44.8697765 142.630308,44.7198356 143.562788,43.9551377 C144.480229,45.184652 142.645348,45.4845336 141.712867,46.0992908 Z M145.601441,57.1696845 C145.882023,57.6088196 146.75183,56.8863714 147.032413,57.3113409 L146.176635,57.8921326 C146.316927,57.1696845 145.461149,57.7504762 144.885954,57.0280279 C145.376974,56.7305492 145.376974,56.7305492 145.601441,57.1696845 L145.601441,57.1696845 Z M67.5765429,17.3454119 C67.6503478,17.3454119 67.6503478,17.1975755 67.6503478,16.9610371 C67.5765429,17.1975755 67.5765429,17.2714937 67.5765429,17.3454119 Z M61.4054791,20.5384348 L61.2597093,20.3965248 C62.6007904,19.9566037 63.198446,19.9566037 64.3937575,19.6727835 L63.7961018,18.225301 C61.4054789,18.8071323 60.4433991,19.0909523 58.3588926,19.3889634 C58.0673532,20.1127047 58.2131229,20.5526258 57.3093509,20.9783561 L56.8574649,19.9566037 L55.8079232,20.3965248 C56.6971182,21.1202661 55.9536928,20.8364459 56.2598093,21.4182772 C56.7116953,21.2763672 58.0527764,21.8581983 58.198546,20.6945359 C59.1023181,21.4040862 60.8224002,20.2404237 61.4054791,20.5384348 L61.4054791,20.5384348 Z M62.1409737,19.3085641 L62.2472989,19.6278611 C62.0346484,20.1531561 61.1627815,20.0501571 61.2691067,20.3694541 C60.8863358,19.8338592 61.7582028,19.205565 62.1409737,19.3085641 L62.1409737,19.3085641 Z M84.3983919,17.5752545 C83.3191669,18.0759492 82.7195975,16.4123505 81.5654262,17.5752545 C82.4797695,18.3989781 82.9444359,18.2374637 83.708887,18.5604925 C83.4091022,19.5457305 82.9444359,19.7233964 83.0943282,20.2079397 C84.1735532,19.707245 84.7731226,20.0464253 85.552563,20.3694541 C85.8523478,19.5457305 86.317014,19.3842161 86.9315726,19.2065501 C86.1671216,18.8835212 86.1671216,18.8835212 86.4669064,18.0436462 C85.3876814,18.5443409 85.7024553,17.7206173 85.237789,17.8821318 C85.237789,17.8821318 84.9380043,18.7058554 85.0878966,19.2065501 C83.7838331,19.0611872 84.5482842,18.0597976 84.3983919,17.5752545 L84.3983919,17.5752545 Z M98.4109924,23.5856837 C98.7370948,23.4367842 98.6213811,23.1240952 98.7370948,22.5136071 L98.2006039,22.8114062 L97.664113,23.1092053 C97.6535936,23.5856837 97.9796959,23.4367842 98.4109924,23.5856837 L98.4109924,23.5856837 Z M98.8463968,24.6577602 C99.4827718,24.3699308 99.0016101,23.9237953 99.7931985,23.9237953 C99.9484119,23.1898304 99.0016101,23.9237953 98.8463968,23.6359659 C99.0016101,23.9237953 98.5359699,23.7654891 98.8463968,24.6577602 Z M108.205982,6.43245918 L107.322929,6.91023244 L107.916457,7.50453571 C108.495508,7.25982259 108.495508,6.66551932 108.205982,6.43245918 Z M90.5001644,21.4201848 C91.1535898,21.6097211 92.6198125,20.4535494 93.3529239,21.2306483 C92.5401265,20.2640129 93.5122959,19.6764503 93.3529239,19.2973775 C91.7273291,20.0744766 91.0739037,19.8849402 90.5798504,20.0744766 C90.9782805,21.1358802 89.5120577,20.7568074 90.5001644,21.4201848 L90.5001644,21.4201848 Z M93.520883,20.4891998 C93.4459157,20.4891998 93.4459157,20.565094 93.3709484,20.565094 C93.4459157,20.565094 93.4459157,20.565094 93.520883,20.6409881 C93.4459157,21.1874264 93.2959809,21.809759 93.520883,22.2651243 L94.1356153,22.0374417 L93.5958503,20.7927767 C94.2105826,21.0204594 94.7503473,21.3392149 94.9752494,21.718686 C94.510452,21.8704744 94.2105826,22.6445954 94.3605172,23.1151396 C94.8253147,22.9633512 95.8898509,22.492807 96.2047138,23.5856837 C96.5045832,22.8115627 96.819446,22.1892301 96.3546484,21.0963534 C95.9648183,22.4320916 94.8103212,19.790973 93.520883,20.4891998 L93.520883,20.4891998 Z M112.247917,9.64868877 C111.42343,9.82443897 111.585094,10.3692649 111.746758,10.7207653 C111.924589,10.3692647 113.411899,10.2813896 112.247917,9.64868877 Z M54.9155097,21.4415306 L52.5882353,22.3329856 C52.7632183,22.8748503 53.4806488,23.2244405 53.1306827,23.3992357 C53.3056656,23.5740307 53.4806488,23.9411004 53.4806488,24.6577602 L55.8079232,23.7663052 C55.6329402,23.2244405 54.3730623,23.5915102 54.1980791,23.0496455 C54.653035,22.1581905 55.0904926,21.8959978 54.9155097,21.4415306 L54.9155097,21.4415306 Z M102.306492,4.82434438 L103.107217,5.36038265 L104.103241,4.92944999 L103.302516,4.28830612 C102.69709,4.50902776 101.310469,4.71923888 102.306492,4.82434438 Z M100.883553,4.62190795 C100.553005,4.01183099 100.040655,4.42510898 99.1977559,4.42510898 C99.0324816,5.42878408 98.3548571,5.23198511 99.0324816,6.43245918 L100.883553,4.62190795 L100.883553,4.62190795 Z M87.6544171,19.6713434 L87.176626,18.4217994 C86.0669178,18.9597975 86.3905827,18.0747039 85.9127917,18.2482517 C85.6045394,19.1333454 86.698835,18.5953473 86.8529611,19.1333454 C87.0070871,19.6713434 86.5447087,20.018439 86.698835,20.556437 C87.176626,20.3828893 86.8529611,21.094435 87.6390044,21.4415306 C88.7487126,20.9035326 88.9028386,21.6150783 89.3652172,21.2679829 C89.8430082,21.0944352 89.5193433,19.8448913 90.1512605,20.2093414 L89.6734694,18.9597976 C89.3189793,19.6713436 88.4404602,18.6127021 87.6544171,19.6713434 L87.6544171,19.6713434 Z M112.656273,10.6367741 L112.656273,10.7846107 C112.803883,10.8585289 112.656273,10.7106924 112.656273,10.6367741 Z M113.696947,31.0902194 L61.1740696,51.9801794 L65.0334364,53.6038265 L114.835534,33.9026081 L113.696947,31.0902194 L113.696947,31.0902194 Z M147.967374,74.9496359 C147.901531,74.9496359 147.967374,74.9496359 147.967374,74.9496359 C147.967374,74.9496359 147.967374,74.8539148 147.901531,74.8539148 L147.835689,74.7581937 C147.57232,74.4710303 147.295782,74.260444 147.295782,74.1647229 L147.295782,73.9732806 C147.164098,74.1647227 147.164098,74.1647227 147.295782,74.1647229 C147.295782,74.1647229 147.164098,74.3561651 147.032413,74.3561651 C147.22994,74.8539148 147.57232,74.6433285 147.835689,74.8539148 L147.835689,74.9496359 C147.361624,74.9496359 147.769847,75.9259913 147.295782,75.7345491 C147.295782,75.9259913 147.295782,76.1174336 147.164097,76.1174336 C147.361624,76.1174336 147.638162,76.0217125 147.769847,75.7345491 L148.375596,75.7345491 C148.638965,75.7345491 148.915502,75.5431069 149.178872,74.9496359 L148.375596,75.7345491 L147.967374,74.9496359 Z M150.252101,74.8122969 C149.727169,74.5792368 149.727169,74.2179937 149.727169,73.9732806 C148.388593,74.4510538 149.989635,74.8122969 149.464703,75.0453571 C149.700922,74.9288271 149.963388,74.9288271 150.252101,74.8122969 L150.252101,74.8122969 Z M57.8743164,53.6038265 L19.3046428,69.4420929 L19.0126695,69.4420929 C19.0126695,69.2951702 19.0126695,68.9866326 18.8666829,68.6927871 L17.377619,69.2951702 C17.377619,69.2951702 17.5236056,69.7506305 17.0856457,70.044476 C17.2316323,70.1913986 17.377619,70.1913986 17.5382042,70.1913986 L16.9396591,70.485244 L17.3922176,71.5430874 C17.1002443,71.6900101 16.7936723,71.8369329 16.1951271,71.9985477 C16.3411137,75.230847 15.5965818,78.9773757 16.7936723,83.1059034 L17.684191,82.8120579 C18.1367496,83.414441 17.5382044,84.1637468 17.9761642,84.9130525 C17.9761642,85.2068979 17.9761642,85.3685128 17.8301776,85.6623582 C17.9761642,85.6623582 18.1221509,85.5154356 18.2827362,85.2068979 L18.4287229,85.3538206 C18.4287229,85.3538206 18.7206963,85.8092809 17.684191,85.9562037 C18.2827363,86.7055094 17.9761643,87.1609697 18.5747095,87.9102754 C19.1732549,87.3078923 18.1221509,86.852432 19.3192415,86.5585866 L19.9177868,87.3078923 L20.6623187,86.7055094 C20.8083053,85.9562037 19.9177868,86.5585868 18.8666829,86.1031263 C19.6112148,85.5007432 19.0126695,84.6045148 19.1586561,83.8552091 C19.0126695,83.8552091 18.8666827,83.8552091 18.8666829,84.0021317 L18.5747095,83.3997488 L18.4287229,83.3997488 L18.4287229,82.9442883 C19.1732549,83.091211 19.4798268,83.3997486 19.9177868,83.0912111 C19.3192415,82.3419054 19.3192415,81.5925997 19.4652281,80.8432939 C18.7936894,80.6963713 18.5017161,80.4612949 18.1951442,80.0205269 C18.1951442,79.9470655 18.1951442,79.8001428 18.1221509,79.6385277 C18.4141243,79.6385277 18.5747095,79.9323732 18.8666829,79.7854505 C19.0126695,79.4916051 19.0126695,79.3299902 19.0126695,79.0361448 C19.1586561,79.0361448 19.3046428,79.0361448 19.4652281,78.889222 C19.1732547,78.4337617 19.9177866,78.5953766 19.9177868,77.8313786 C19.3192415,77.0820729 19.6258134,76.6266126 19.3192415,76.3327671 C19.1732549,76.1858445 19.1732549,76.1858445 19.0272681,76.1858445 L19.0272681,76.0389218 C19.0272681,76.0389218 19.1732547,75.8919992 19.1732549,75.7450764 C19.173255,75.5981536 19.1732549,75.451231 19.0272681,75.2896161 L19.0272681,72.5127771 L19.4798268,72.3658545 L59.027611,56.3659732 L57.8743164,53.6038265 Z M17.2267708,79.4377483 L17.7903769,79.3336632 L17.9721854,79.3336632 C17.9721854,79.5418334 17.6085685,79.5418334 17.9721854,79.7604121 C18.0630896,79.7604121 18.1539938,79.7604121 18.244898,79.7083695 C18.1539938,80.0830758 18.0630896,80.0310333 17.4085791,79.9789908 C17.7721961,80.187161 17.7721961,80.4057397 17.7721961,80.4057397 C17.4085791,80.0830759 17.0267814,79.7604121 17.2267708,79.4377483 Z M19.5469225,83.6219693 C19.5469225,84.1449335 19.3993127,84.6940459 19.089332,84.6940459 C19.089332,84.4325639 19.089332,84.4325639 19.2369418,84.1710817 L19.5469225,83.6219693 Z M19.2994066,81.4778163 C19.4458661,82.6987923 18.6989225,82.3861033 18.244898,82.5498928 C18.244898,82.4009933 18.244898,82.0883043 18.5378171,81.9394047 L18.5378171,81.7905053 C18.8453821,81.7756153 19.1529471,81.7756153 19.2994066,81.4778163 Z M132.007203,25.1193486 C131.236292,24.9704492 132.475796,24.8215496 131.704885,24.6577602 C131.553726,25.4171477 131.236292,24.9555593 130.933974,25.2682481 L131.236292,25.7298367 L132.007203,25.1193486 Z M135.067599,32.1622959 C135.067599,31.9708537 135.426006,31.3773826 135.067599,30.0181428 C134.888395,30.9944983 134.888395,30.9944983 134.153661,30.8030559 C134.60167,31.1859405 134.870475,31.7794113 135.067599,32.1622959 L135.067599,32.1622959 Z M131.143335,27.8739898 C131.685802,27.6637787 132.035781,27.443057 133.470695,27.7688843 C134.013163,27.5586732 134.363142,27.3379515 134.013163,27.0121244 C133.120716,27.4430571 132.22827,26.9070189 131.335823,26.8019132 C132.578249,27.1697826 130.250888,27.2853988 131.143335,27.8739898 L131.143335,27.8739898 Z M31.234129,110.691902 C31.3919568,110.376585 31.7233952,110.045503 32.1968788,110.045503 L30.7448626,108.27973 C30.2555963,108.595046 31.0605183,109.572528 30.5870348,109.887844 C29.7821128,109.730186 29.4506744,109.399104 28.9771909,109.730186 L30.429207,111.495959 C30.7606455,111.164877 30.9184733,110.518477 31.234129,110.691902 L31.234129,110.691902 Z M133.237198,32.1622959 C133.596595,31.0902194 133.973963,32.1622959 134.153661,31.9520847 L133.596595,31.0902194 C133.237198,31.3004304 132.85983,31.7418737 133.237198,32.1622959 Z M125.567827,19.1930161 L125.003899,18.225301 C124.577514,18.6047972 124.302427,19.0032681 123.600955,19.0032681 C123.738499,19.3827642 123.037027,19.1930161 123.738499,20.3694541 C124.164884,19.0032681 124.866355,19.9709831 125.567827,19.1930161 L125.567827,19.1930161 Z M18.3790516,67.5408214 C18.3790516,67.5408214 18.9901961,66.787166 19.3628452,67.0088294 C20.9577831,63.0041116 21.0323129,58.5560671 23.5514206,54.5513493 C22.9402761,54.5513493 22.7912165,54.0932451 22.7912165,53.6499184 C23.0893358,53.5021429 23.2533013,53.5021429 23.2533013,53.5021429 C24.3265306,53.0440387 24.6246499,52.4381588 24.162565,51.3889523 C25.6829731,50.7830724 25.5339136,49.1279862 26.8307324,48.1378899 C25.8469388,46.9261303 26.5326131,46.5566914 26.0705283,45.0346031 C26.4580833,44.8129397 26.6816728,44.2809477 26.9797919,44.6503866 C26.8307324,45.8621462 26.3686474,46.0099219 26.8307324,47.0739058 C30.1100441,42.3155326 32.3906564,38.0891515 37.6524609,34.2322094 C37.9505802,33.478554 39.4858943,32.8726741 39.4858943,31.8086901 C39.6349539,32.2667943 39.6349539,32.2667943 40.2460984,32.1042412 C41.7665066,30.2866018 45.5079031,29.4590587 46.4171669,27.3458681 C48.5487196,27.0503169 51.0678271,24.7745732 53.6614646,23.9470301 C53.5869348,23.7992546 53.4378751,23.5628137 53.2739096,23.4889259 L53.6614646,23.1933747 C53.512405,23.0455992 53.4378751,22.9717113 53.1993798,23.0455992 L52.9012605,22.5136071 C52.4391757,22.6613826 51.3808523,23.119487 51.5299119,23.5775912 C50.6206483,22.8239358 48.4890956,24.7893508 47.6394558,25.2326775 C47.7885154,25.6907817 48.1015406,26.2966615 47.4903962,26.4444372 C46.4171669,26.9025414 47.6394558,25.2326776 46.5811324,25.6907818 C46.730192,26.148886 47.0432172,26.7547659 45.9699881,27.0503169 C44.5986395,26.444437 42.3925572,27.9517478 41.0212086,29.015732 C41.4832933,30.0797161 41.7814126,29.3112832 41.9304722,29.7693874 C40.8572429,30.2274916 41.6323529,30.5230427 41.1702681,30.6708183 C40.5591236,29.1635075 40.7081833,30.8185938 39.7989195,30.0649384 C39.7989195,30.0649384 40.7081832,30.8185938 40.2610045,31.1289225 L39.7243898,29.9910506 C36.5196078,30.744706 36.445078,33.0056721 33.8514405,33.9957684 C34.0005001,34.4538727 33.5533212,34.7494238 33.702381,35.207528 C30.497599,38.3108148 27.9188676,41.473212 26.0109044,44.9459377 C26.0109044,44.8720499 25.9363746,44.7242742 25.8618447,44.5617212 C25.3997599,44.7094967 25.7127851,45.7734808 25.2507003,45.9212564 C25.7127851,46.9852405 26.0109044,46.2168076 26.159964,46.6749118 C25.0867347,47.133016 25.3997599,46.3793607 24.9376751,46.5271363 C25.0867347,46.9852405 25.8469388,47.2807917 25.3997599,47.5911202 L24.3265306,48.0492246 C24.4755902,48.5073288 24.0284113,48.80288 23.5663265,48.9506555 C24.177471,50.4579662 24.0284113,51.595838 23.1042417,51.965277 C23.402361,52.7189323 22.9551822,53.029261 22.8061225,53.4725877 C22.8061225,53.0144835 22.8061225,52.5711568 22.6570629,52.2608281 L23.1191477,52.1130525 C22.9700881,51.6549483 23.2682072,50.9012929 22.5080032,50.6057417 C21.4347739,51.0638459 22.0459184,52.4233812 21.1366547,52.8667079 C21.2857143,53.3248121 22.209884,54.2262431 21.7477991,54.3740186 C20.6745698,53.0144834 21.2857143,56.191658 20.2273909,56.191658 C20.8385354,57.6989688 18.8560423,58.4526242 20.3764506,59.4427205 C19.3032213,59.9008247 19.6162466,59.1471693 19.1541616,59.294945 L19.6162466,60.358929 C18.5430173,60.8170332 19.1541618,62.1765685 18.244898,62.6198952 C19.1541616,63.3735505 18.0958384,63.8316547 18.5430173,64.7330856 C19.005102,64.5853101 19.3032213,63.8316547 19.6162466,64.2749814 L19.7653061,64.7330856 C19.005102,65.0286368 18.6920768,65.486741 18.6920768,65.9448453 C18.6920768,65.4867411 18.5430173,64.8808613 18.3939575,65.3389655 C18.990196,66.255174 17.9318727,66.5655027 18.3790516,67.5408214 L18.3790516,67.5408214 Z M52.6694207,22.3214197 L52.8170307,22.7057945 C52.5956158,22.5579581 52.3594399,22.4840398 52.3594399,22.4840399 C52.4332448,22.3953381 52.5956158,22.3953381 52.6694207,22.3214197 Z M49.3356155,23.5856837 C49.4701936,24.1791546 49.2010374,25.15551 48.3666527,25.7298367 C48.0167495,24.3705967 49.0530013,24.3705967 49.3356155,23.5856837 Z M147.032413,75.890135 L146.460907,75.890135 C145.289319,76.4962646 146.460907,76.4962646 147.032413,75.890135 Z M145.959184,88.0153916 C145.959184,88.0153916 146.063381,88.4317217 146.282194,88.982352 L147.032413,88.5660219 C146.80318,88.0153916 146.271775,87.7467916 145.959184,88.0153916 Z M42.1177058,10.9835162 C41.8559424,11.2445889 41.8559424,11.5056619 41.8559424,11.7928418 C42.3794689,11.5317691 42.6674083,11.2706962 42.9291717,10.7224433 C42.6674085,10.696336 42.4056452,10.983516 42.1177058,10.9835162 L42.1177058,10.9835162 Z M144.885954,92.155438 C145.703698,92.4843549 145.86404,92.9941758 145.86404,92.9941758 C146.024382,93.5039968 145.543356,93.8329136 145.703698,94.3427346 C146.85816,93.8329136 145.543356,92.5008007 146.85816,92.5008005 C145.880074,91.6620627 147.178844,91.6620627 147.018502,91.1522417 C146.120587,90.9877834 145.86404,91.6456169 144.885954,92.155438 L144.885954,92.155438 Z M28.2127398,108.27973 C28.6774061,107.171083 28.6774061,107.971772 28.9771909,107.648417 C28.6774061,107.171083 28.8272986,105.600501 27.5981813,105.923856 C28.0628475,104.815209 26.369064,103.398605 26.3690638,102.613314 C25.4547205,101.504668 25.4547205,100.719377 24.6902694,99.7031173 L23.6110444,100.811764 C24.8401617,103.337014 25.6046128,104.122305 26.4440101,106.247211 C27.2084611,106.40119 27.6731274,105.939254 28.287686,106.878524 L27.523235,107.509836 L28.2127398,108.27973 L28.2127398,108.27973 Z M24.6967496,102.076061 L25.2345826,101.84727 C26.1194047,101.961666 26.4837432,102.785313 26.8307323,102.545082 C26.2061521,103.368729 24.5232552,102.659478 24.6967496,102.076061 Z M25.757503,99.770455 C25.6522845,99.6226186 25.6522845,99.4747822 25.5470659,99.4747822 C25.2208884,99.6226186 25.0104512,99.3269458 24.6842737,99.6226186 C25.1156698,100.376585 25.4418473,99.4747822 25.757503,99.770455 Z M22.7953902,97.4604644 C23.6164106,97.6032176 22.6344059,98.1885057 23.9544778,98.6310407 L25.757503,97.3177113 C24.5984154,96.1471351 25.2584514,95.1335873 23.6164106,94.9765587 C24.5984154,93.6632292 23.117359,92.0643935 22.457323,90.522659 C22.457323,90.522659 21.9582714,91.550482 21.6363025,91.1079471 C21.7972869,90.3799058 21.3143337,89.937371 21.797287,89.6518645 C22.4573231,90.3799058 21.6363027,90.3799058 22.1192557,90.8224407 C22.9402761,90.2371525 22.7792918,89.0665763 21.6202041,87.9102754 C21.1211526,88.1957819 20.3001322,88.1957819 20.3001322,88.1957819 C20.622101,88.6383168 20.622101,88.6383168 20.1391477,88.9238232 L19.3181273,89.5091112 C20.4772149,89.9516461 21.1211524,91.550482 20.6381994,92.5783051 C20.9601682,93.0208399 21.4592198,92.7210582 21.4592198,92.7210582 C20.6381994,93.3063464 21.9582714,94.319894 22.6183075,94.319894 C21.137251,94.6054004 24.0993639,95.4904702 24.2603483,96.6610465 C23.2783435,97.1606827 23.6164108,97.6032177 22.7953902,97.4604644 L22.7953902,97.4604644 Z M21.0557154,90.0544285 L20.3913565,89.2573041 C20.6056658,89.0628837 21.0557154,88.868463 21.2700249,89.0628837 C21.2700249,89.1600939 21.8272291,89.7433556 21.0557154,90.0544285 L21.0557154,90.0544285 Z M114.835534,12.5711796 L114.120048,11.5031085 L114.469066,11.1529211 C114.120048,10.6101309 113.212602,10.6101309 112.689076,10.9778276 C113.038093,11.5206178 113.038093,12.4135954 113.404562,12.7637827 C114.294557,12.921367 114.294557,12.921367 114.835534,12.5711796 L114.835534,12.5711796 Z M97.6638655,144.086657 C97.4534284,143.548582 96.9062919,143.548582 96.5906363,143.913084 C97.1272509,144.971879 97.6638655,144.971879 97.6638655,144.086657 Z M99.2353797,143.658255 C98.6412707,143.807154 98.0663265,143.956054 97.6638655,144.119843 C97.8555136,144.268743 98.2579745,144.730332 99.8103241,144.730332 C98.8520837,144.417643 98.8520837,144.417643 99.2353797,143.658255 L99.2353797,143.658255 Z M97.5900534,144.78577 L97.7376705,144.78577 C97.7376705,144.637934 97.5900534,144.637934 97.5900534,144.78577 Z M7.51260504,98.8422043 C7.97004704,98.7682861 8.32192557,98.6204496 8.58583433,98.5465314 C8.32192539,98.1621566 7.95245316,98.7682861 7.51260504,98.8422043 Z M99.7936952,145.618076 C99.4975275,145.47061 99.0384677,145.913008 98.8903839,146.517617 C98.7423001,145.618076 98.5942162,145.160932 98.431324,144.556322 C97.8241803,144.703788 97.2170367,144.851254 96.772785,145.013466 L96.9208689,145.160932 L96.6247012,145.160932 C96.3285335,144.866 96.0175575,145.013466 95.4104138,144.703788 C95.4844557,145.087199 95.2623301,145.308398 95.2623299,145.603329 C95.1142461,145.529596 94.9661622,145.529596 94.8032701,145.455863 C94.8032701,145.308398 94.8032701,144.998719 94.5071024,144.851254 C93.7518748,144.703788 92.8485635,146.207939 92.2414197,145.308398 C92.0933359,145.455863 91.945252,145.765542 91.9452522,146.060473 L91.1900246,146.355405 C91.1900246,146.060473 91.0419408,145.750795 91.4861922,145.750795 C91.6342759,144.998719 91.0271323,146.045727 90.7309646,145.603329 L90.8790485,144.851254 C91.1752163,145.308398 91.6342761,144.246644 91.9452522,145.308398 C92.404312,145.013466 92.7004797,145.455863 93.1595395,145.013466 C92.8633718,144.556322 93.6185994,143.951712 93.0114558,143.052171 C92.2562282,143.65678 92.863372,143.804246 92.5523958,144.113924 C92.2562281,143.65678 91.7971682,144.718534 91.3381084,144.408856 C91.3381084,144.408856 91.7971682,144.113924 91.4861922,143.65678 C86.8659766,144.718534 82.2457609,145.765542 77.7143958,145.160932 L76.5001082,146.222686 L75.8929646,145.47061 C74.6786772,146.532364 73.0941802,144.408856 71.4208329,145.765542 L70.8136891,145.013466 C69.303234,145.618076 67.7927789,145.47061 66.3415573,145.308398 C64.5201262,144.703788 62.6394615,144.851254 61.2770902,143.951712 C60.5218626,143.804246 59.7666351,143.804246 59.0114075,143.65678 C58.4042637,142.904705 57.7971201,143.951712 56.8938088,142.595027 C53.1917129,142.889958 50.0079106,140.029121 46.6019823,140.029121 C40.6193954,136.032797 34.7997007,133.924036 29.4242576,128.880705 C28.6690301,128.733239 29.2761738,129.632781 28.6690301,129.485315 C27.4547427,127.981163 26.0183295,126.3148 24.3597906,124.589449 C24.2857487,124.589449 24.1376648,124.663182 24.0636229,124.663182 C23.9155391,124.589449 23.7674552,124.589449 23.604563,124.589449 L23.7526468,124.736915 C23.4564791,124.810648 23.2195451,124.810648 23.293587,124.441984 C23.4416708,124.294518 23.7526468,124.147052 24.0488145,124.294518 C21.4721558,121.65488 18.6733714,118.484364 16.4076886,115.254863 C16.4076886,115.254863 15.9486288,115.549795 15.6524611,115.107397 C16.4076886,114.502787 15.8005449,114.355321 16.1115211,114.045643 C14.2900899,112.688958 14.1420061,110.875128 13.0906109,110.358998 C13.2386947,109.606922 12.0244073,106.51014 10.6620359,107.571894 L11.4172635,106.967284 C10.8101197,106.215208 10.3510599,105.758064 10.5139522,105.005988 C10.0548923,105.30092 10.3658684,105.684331 10.1289342,105.979263 C10.35106,106.436407 10.35106,107.114749 9.98085028,107.409681 L9.37370666,106.657605 L9.8327665,106.362674 C9.22562273,105.610598 9.07753895,106.215208 8.76656289,105.90553 C9.52179044,105.30092 9.52179044,106.052996 9.98085028,105.610598 C9.68468257,105.153454 10.1289341,104.858522 10.4399101,104.548844 C9.53659879,102.587549 9.22562273,101.378329 8.61847911,99.9479105 C8.61847911,99.9479105 8.15941927,100.242842 7.86325156,99.8004447 C8.15941927,101.009664 7.10802401,99.652979 6.95994008,101.15713 L6.35279646,100.405055 C6.8118563,100.110123 6.8118563,99.3433006 6.8118563,99.3433006 C6.95994008,99.5644994 7.34495803,99.5644994 7.71516763,99.5644994 C7.64112574,99.5644994 7.56708385,99.5644994 7.56708385,99.4907665 L7.27091614,99.0336224 C7.27091614,99.0336224 7.56708385,99.4907664 8.02614369,99.1810883 C7.56708385,98.4290126 7.56708385,98.4290126 8.02614369,98.1193343 C7.41899992,97.3672586 7.27091614,97.9718686 6.95994008,97.6621902 L7.71516763,96.9101145 C4.69425743,89.9054879 4.30923948,83.4907247 3.85017964,77.1644409 C4.14634735,77.0169751 3.99826342,76.7072968 3.85017964,76.4123652 C3.85017964,76.5598309 3.55401193,76.8695092 3.85017964,77.1644409 C3.3911198,77.4593725 2.63589225,77.4593725 2.78397603,76.7072968 C3.08014374,77.1644409 3.53920358,76.1026869 3.85017964,76.4123652 C3.70209586,76.2648994 3.70209586,76.1174336 3.55401193,76.1174336 C2.33972454,76.4123653 1.125437,77.3266533 0,78.3736607 C0.607143769,79.1257364 -0.148083781,79.8778121 1.21428739,80.7921001 L1.06620361,80.939566 L0.799652596,80.939566 C0.799652596,81.0870318 0.947736377,81.0870318 0.947736525,81.0870318 L0.651568815,81.3819635 C1.55488015,86.7349728 2.16202391,91.6308382 3.4503532,96.6889158 C3.74652091,96.9838475 4.66464059,96.3939841 4.5165568,97.1460598 L3.76132925,97.7506698 C5.12370057,99.4022869 4.82753286,101.599528 6.56011378,102.956213 C6.26394607,102.499069 6.26394607,102.499069 6.70819756,102.204138 C6.78223946,102.204138 6.85628135,102.27787 6.93032338,102.351603 C6.93032338,102.425336 6.93032338,102.499069 7.00436527,102.499069 C7.00436527,102.499069 7.00436527,102.351604 7.15244906,102.351603 C7.15244906,102.351603 7.00436527,102.351603 7.00436527,102.204138 C6.85628149,101.452062 6.93032338,101.378329 7.61150904,100.847452 C7.90767675,101.304596 7.61150904,101.599528 7.15244906,102.499069 C8.05576039,102.956213 8.66290416,103.560823 9.27004793,103.708289 C8.51482038,104.312899 7.75959283,103.560823 7.30053299,103.855755 C6.39722165,103.708289 7.5967007,103.398611 7.30053299,102.956213 C6.84147315,103.251145 6.54530544,102.808748 5.79007788,103.560823 C7.44861677,106.347927 8.21865281,109.061298 10.0993174,112.158081 C10.5583772,111.863149 10.8545449,111.553471 11.3136048,111.863149 C10.0993174,112.158081 10.8545449,112.924903 11.4616887,113.824444 C11.9207485,113.529513 12.2169162,113.219834 12.9721438,113.97191 L11.7578562,115.033664 C12.6611676,116.99496 14.9416587,117.289891 14.0235389,118.572844 C15.3859102,119.472385 15.0897425,119.782064 16.1411378,120.386674 C15.993054,121.890825 18.4068204,123.925853 19.6951498,125.592217 C20.9094372,125.297285 21.2056049,125.739683 21.2056049,124.987607 C21.2056049,124.987607 22.2718086,125.444751 21.8127486,125.739683 C21.3536887,126.034615 21.057521,125.592217 20.5984612,126.034615 C22.2570001,128.821718 24.0043893,129.278863 25.9739043,131.844768 C26.4329641,131.549836 26.7291318,131.992234 27.1881918,131.549836 C27.7953356,133.053988 30.59412,134.794084 32.4155511,135.398694 C33.0226949,136.15077 32.2674673,136.15077 32.7117187,136.607914 C34.07409,137.507456 35.8955212,138.864141 37.1838504,139.778429 C37.6429103,139.483498 37.6429103,138.716675 37.9390781,139.173819 C37.0357668,140.530505 39.0052817,140.383039 39.3014493,140.825437 C39.3014493,140.825437 39.7605091,139.763683 40.0566769,140.220827 C40.3528446,140.677971 38.5462218,140.825437 39.597617,141.282581 C40.3528446,141.430046 40.8119044,140.987649 41.1080721,141.430046 C44.9730601,143.538808 48.8972818,145.116692 52.9103536,146.325912 C53.5174973,146.473378 54.1246409,146.620843 54.7317847,146.930522 C54.7317847,147.077987 54.5837009,147.077987 54.4356172,147.225453 C54.894677,147.372919 55.3389285,147.682597 55.7979883,147.830063 C55.6499045,147.535131 55.6499045,147.372919 55.6499045,147.077987 C55.7979883,147.077987 55.9460723,147.225453 56.2570483,147.225453 L56.4051321,147.520385 C58.9817908,148.272461 61.6324914,149.334215 64.5053178,149.334215 C64.5053178,149.039283 64.5053178,148.877071 64.6534016,148.729605 C65.4086292,148.87707 66.1638567,148.87707 66.7710005,149.024536 C66.7710005,149.319468 66.9190843,149.629146 67.067168,150.08629 C68.4295394,149.629146 69.036683,149.791359 69.7178688,150.381222 C69.569785,150.233756 69.4217011,149.924078 69.5697849,149.629146 C70.0288447,149.48168 70.3250124,149.924078 70.6359885,150.985832 C72.1464436,150.381222 73.8938328,150.838366 75.5523717,150.6909 C75.256204,149.938824 74.4861681,149.938824 74.1900005,149.791359 L74.3380843,149.791359 C74.4861681,149.643893 74.4861681,149.643893 74.4861681,149.496427 C74.7823358,149.496427 74.7823358,149.643893 75.0933119,149.791359 L75.2413957,149.791359 L75.2413957,149.496427 C75.3894794,149.201495 75.7004555,149.039283 75.8485394,149.201495 C75.9966232,149.348961 75.9966232,149.496427 75.9966232,149.496427 C75.9966232,149.348961 76.144707,149.348961 76.603767,149.201495 L76.7518508,149.201495 C76.8999345,149.496427 77.0480185,149.658639 77.0480185,150.101037 C77.0480185,150.101037 76.8999347,149.643893 76.2927909,149.806105 C76.7518508,150.867859 77.1961023,150.558181 77.3589945,151.162791 C78.1142221,150.263249 79.0175334,151.015325 80.0096951,150.705647 C79.7135274,149.953571 79.8616113,149.643893 80.0096951,149.348961 C80.0096951,149.348961 80.1577789,149.201495 80.3058628,149.201495 C80.6020305,149.348961 80.7649227,149.496427 81.0610904,150.263249 L82.127294,149.806105 C81.8311263,150.558181 82.2753778,150.263249 82.5863538,150.867859 C84.0968089,150.263249 85.7701563,150.115783 87.3546533,150.115783 C87.2065695,149.658639 87.5027371,148.906564 87.2065694,148.464166 L87.4286952,148.390433 C87.5027371,148.464166 87.576779,148.464166 87.6508209,148.464166 C87.6508209,148.390433 87.6508209,148.3167 87.576779,148.3167 L87.7989048,148.242967 L87.9469886,148.537899 C88.2431563,148.390433 88.5541323,148.390433 88.7022161,148.242967 C88.7022161,148.390433 88.8502999,148.700112 88.8503001,148.995043 C88.8503001,148.995043 87.4879287,150.056797 88.0950725,149.894585 C89.6055276,149.289975 89.9165037,150.351729 90.7457731,149.437441 C90.5976893,148.980297 90.2867133,148.375687 90.5976892,147.785823 L90.1386293,147.785823 C90.434797,147.638358 90.7457731,147.638358 91.0419407,147.638358 C91.3381084,148.242967 92.1081443,149.142509 91.5010007,149.747119 C92.2562282,150.042051 92.863372,150.351729 93.9295754,149.894585 C93.4705156,148.832831 93.1743479,149.599653 93.0262641,149.142509 C93.7814917,149.142509 94.5367192,148.685365 95.143863,148.537899 C94.8476953,148.832831 94.8476953,149.289975 94.995779,149.599653 C95.2919468,149.304721 95.6029228,149.142509 95.8990905,148.995043 L95.7510066,148.537899 C95.8990904,148.537899 95.8990904,148.685365 95.8990905,148.995043 C97.1133779,148.390433 98.4757492,147.933289 98.4757492,147.033748 L98.9348091,148.095502 C99.0828929,147.948036 99.0828929,147.80057 99.0828929,147.343426 L99.5419527,147.19596 C99.0384677,146.384898 99.941779,146.001487 99.7936952,145.618076 L99.7936952,145.618076 Z M4.29291717,90.0544285 C4.14150184,90.3522276 3.82352953,90.9627155 3.52069873,91.126505 C2.67277263,90.828706 3.83867104,90.6649166 4.29291717,90.0544285 Z M3.21968788,92.3580893 C3.62542088,92.0624163 3.88718417,91.7519597 4.29291717,92.0624163 C3.95262496,92.2102527 3.35056945,92.6685459 3.21968788,92.3580893 Z M4.38282494,94.3427346 C4.10968004,93.8811462 4.51939732,93.5833471 4.80619944,93.2706581 L5.36614646,94.0300456 C5.01105815,94.4916341 5.01105815,93.7322465 4.38282494,94.3427346 Z M6.93293801,97.5589642 L7.51260504,97.881628 C6.03445434,97.7775429 7.22277167,98.412462 6.61412136,98.6310407 C6.64310464,98.1002067 6.03445434,97.7775429 6.93293801,97.5589642 Z M20.3880746,122.606137 C20.3005641,122.606137 19.6704885,122.606137 19.4954676,123.288801 C18.7778816,122.439633 20.475585,121.756969 20.3880746,122.606137 Z M53.6614646,143.385066 C54.1980792,142.651039 54.5242567,142.348793 54.7346939,142.794966 C54.4190382,143.816847 53.8824236,143.816847 53.6614646,143.385066 Z M73.7245385,146.874485 L72.9795918,145.894236 C73.3611498,145.586707 74.6511793,146.086442 73.7245385,146.874485 Z M74.9784405,149.166474 L74.9784405,148.870801 C74.9784405,148.870801 75.1260503,148.870801 75.2736603,149.018638 C75.1408114,149.018638 74.9784405,149.166474 74.9784405,149.166474 Z M82.6386555,149.018638 C83.1752702,149.149294 83.5810032,149.423674 83.5810032,149.423674 C83.5810032,149.554331 83.7118848,149.82871 83.7118848,149.959367 C82.9004186,150.351338 82.7040963,149.815644 82.6386555,149.018638 Z M87.2296919,146.668441 C87.0806323,146.668441 87.0806323,146.874485 86.9315726,146.874485 C87.0806322,146.235749 87.5427171,145.390969 88.0048019,146.029705 C87.5427171,146.050309 87.3787515,146.256353 87.2296919,146.668441 Z M88.2135539,147.423597 L87.918334,147.946561 C87.6231142,147.423597 87.918334,146.874485 88.2135539,146.874485 L88.2135539,147.423597 Z M89.0780312,146.619418 C88.5326196,146.619418 88.1807411,147.01796 88.0048019,146.818689 L88.0048019,146.619418 L88.902092,145.802408 L89.0780312,146.20095 L89.0780312,146.619418 Z M94.2611597,146.82146 C93.9120572,147.021274 93.5454996,146.621646 93.3709484,146.202036 C93.5454996,146.002222 93.7200509,145.802408 93.9120572,145.802408 C94.2611597,146.202036 94.6975378,146.621646 94.2611597,146.82146 Z M94.6546147,146.059754 C94.5493962,146.059754 94.5493962,146.059754 94.4441777,145.985836 C94.865052,145.601461 94.9913141,145.453625 95.517407,145.601461 C95.3069699,145.675379 94.9702705,145.823216 94.6546147,146.059754 Z M98.7602825,143.658255 L99.8103241,143.31757 C99.6044337,142.976886 99.398543,142.448825 98.966173,142.619167 C99.8103241,143.31757 98.5543919,143.31757 98.7602825,143.658255 Z M130.974179,86.3717402 C132.186819,86.5205126 132.482585,85.7617735 131.728382,82.6524313 C131.728382,82.0424646 131.876265,81.432498 131.876265,80.8225312 C132.172031,81.120076 132.482585,81.2837255 132.941022,81.7300426 C134.301544,79.9001425 133.695225,78.4570506 134.153661,77.4007668 L134.07972,77.4751531 C134.07972,77.4751531 134.07972,77.4007669 134.005779,77.4007668 C133.547342,77.6983116 132.941022,76.9395725 133.399459,76.6420277 C133.399459,76.6420277 133.695225,77.103222 134.153661,76.7908002 L133.399459,75.7196392 C133.103693,76.017184 132.645256,76.3296059 132.038936,75.7196392 C132.186819,71.6879081 132.038936,67.5817909 131.284733,63.2525153 C130.219976,63.7137095 130.678413,64.621221 129.465774,64.6212209 C129.924211,67.20986 130.072094,69.7092356 130.219976,72.1491024 L33.8594831,111.454761 L34.1552489,112.362272 C33.548929,111.752305 32.7947262,111.142339 32.3362893,110.3836 C31.8778524,110.681144 31.8778524,111.454761 31.8778522,111.454761 C31.7299694,111.305988 31.7299694,111.157216 31.5820865,110.993566 L31.8778522,110.696022 L31.5820865,110.234827 C31.4342037,110.3836 31.4342037,110.696022 31.5820865,110.993566 L31.1236495,111.291111 C31.4194153,111.752305 32.1884063,112.511044 32.4841721,112.198622 C32.0257352,113.269783 34.4510146,114.787262 35.1312759,115.471614 C35.5897128,115.17407 35.8854787,114.861648 36.3439157,115.17407 C36.9502357,115.932809 35.1312761,115.471614 35.8854787,116.245231 C36.3439156,115.947686 36.6396814,115.635264 37.3938842,116.394003 C37.2460013,117.911481 39.3607266,119.592609 40.6473079,120.425734 C41.4015106,119.815767 40.7951907,119.666995 41.1057448,119.354573 C41.7120647,120.113312 41.8599476,119.503345 42.1705016,119.815767 C40.957862,120.886928 42.4662675,120.276962 42.0226188,121.333245 C42.0226188,121.333245 42.4810557,120.262084 42.7768216,120.723279 L42.0226188,121.333245 C43.6789072,124.145043 45.8823623,123.609463 47.5386508,125.662521 C47.9970877,125.364976 48.2928535,125.811293 48.7512904,125.364976 C49.653376,125.974943 50.57025,126.436137 51.3983942,126.882455 C51.1026284,127.031227 50.7920743,127.343649 50.3336374,127.492421 C51.69416,129.322321 53.3504484,129.158672 54.193381,129.932288 C54.4891468,129.783516 54.4891468,129.471094 54.4891467,129.322321 C54.6370295,129.783516 54.3412638,130.393482 54.7849125,130.229833 C54.6370297,129.768638 55.5391153,129.322321 55.8496693,129.768638 C55.8496693,129.768638 55.3912324,129.917411 55.5539035,130.527377 L56.4559893,130.140569 L56.4559893,130.363728 C56.6038721,130.363728 56.9144262,130.066183 56.7517549,129.753761 C56.6778135,129.828147 56.6038721,129.828147 56.5299307,129.902534 C56.4559893,129.679375 56.3820478,129.515725 56.4559893,129.366953 C56.3820478,129.441339 56.3081064,129.441339 56.1602234,129.441339 L56.0123406,128.980145 C56.1602234,128.980145 56.3968361,129.054531 56.5447189,129.128917 C56.6186604,129.054531 56.6186604,128.980145 56.7665433,128.831372 C57.2249803,128.980145 57.8313002,129.128917 58.2749489,129.292567 C58.2749489,129.292567 58.127066,129.292567 58.1270659,129.441339 C58.5855028,130.5125 58.8812686,129.738884 59.0291516,130.200078 C59.1770345,130.051306 59.3249174,130.051306 59.3249173,129.902534 C59.3249173,130.051306 59.3249173,130.200078 59.6206831,130.5125 C60.0791201,130.363728 60.3009445,130.735659 60.68544,130.661273 C61.4396427,130.958817 62.4304581,131.122467 63.1846609,131.420012 C62.726224,130.348851 62.4304581,131.122467 62.2825752,130.661273 L63.347332,130.200078 C63.8057689,131.271239 64.2494176,130.958817 64.4120888,131.568784 C64.7078547,131.420012 64.7078547,131.271239 64.7078547,131.10759 L64.8557375,131.256362 C65.0036204,131.256362 65.0036204,131.10759 65.1515033,131.10759 C65.6099403,131.405134 66.2162602,131.717556 66.6599089,131.866329 C67.2662288,132.625068 68.6267513,131.717556 69.2330712,132.476295 C69.528837,132.327523 69.8393911,131.717556 70.1351568,131.405134 C69.839391,132.015101 70.2830396,131.866329 70.5935939,132.312646 C71.6583507,131.851451 71.8062336,132.461418 72.2498822,132.163873 L72.2498822,131.866329 C72.5456481,131.866329 72.7083192,132.015101 72.7083192,132.327523 C73.004085,132.178751 73.1667561,132.029978 73.4625219,132.029978 C73.4625219,132.327523 73.6104048,132.639945 73.7582878,132.788717 C74.2167247,132.639945 75.4145761,132.639945 76.1835673,132.93749 C77.2483241,132.476295 76.4793331,132.178751 76.93777,132.029978 C77.3962069,133.101139 77.6919728,132.327523 77.8398556,132.788717 C81.2411622,131.881206 85.4706129,132.178751 89.0198024,131.122467 L89.1676852,131.271239 C89.921888,130.973695 90.6760907,130.810045 91.5929647,130.5125 C91.8887306,130.810045 92.1992847,130.973695 92.4950503,130.810045 C92.7908162,130.661273 92.7908162,130.5125 92.7908162,130.200078 C92.938699,130.200078 93.086582,130.051306 93.3971359,130.051306 L93.5450189,130.5125 C94.6097758,130.051306 95.9702984,129.441339 97.0942083,129.604989 C99.0610507,128.84625 101.249718,127.328772 104.281317,126.183224 C105.03552,125.275713 107.298128,124.963291 107.298128,123.743358 C107.298128,123.743358 107.446011,124.204552 108.052331,124.040902 C111.069142,121.601036 114.781002,119.547977 116.437291,116.661793 C117.502048,116.200599 119.084395,114.995543 119.232278,113.849996 C119.232278,113.849996 119.38016,114.31119 119.98648,114.14754 C121.347003,111.871323 123.846224,109.654615 124.600427,107.080853 C124.452544,106.619659 123.53567,107.542047 123.846224,106.783308 C125.058863,106.932081 125.206746,105.712147 124.910981,105.117058 L125.369418,106.188219 C125.827854,106.039447 125.221535,104.521969 126.877823,104.358319 C126.877823,104.358319 126.12362,104.060774 126.419386,103.287158 C127.779909,103.897125 126.877823,101.457258 128.534112,101.308486 L128.075674,100.237325 C129.58408,98.4074244 129.58408,95.5956269 131.255157,93.780604 C130.500954,91.8019316 132.00936,91.1919649 131.40304,89.748873 L132.467796,89.2876787 C131.728382,88.3504128 132.334702,86.9817071 130.974179,86.3717402 L130.974179,86.3717402 Z M131.778408,76.2299599 C131.926017,76.0418128 132.073627,76.0418128 132.235998,76.6062542 L131.778408,77.1895101 L131.778408,76.2299599 Z M131.836682,79.3336632 C131.984292,79.3336632 132.294273,79.3336632 132.131902,79.7540852 L131.836682,80.4057397 L131.836682,79.3336632 Z M33.270108,113.821546 C33.6219865,113.640112 33.9914589,113.640112 34.3433372,113.640112 L34.5192766,114.002979 L34.8711549,113.821546 L35.4165666,114.38399 C34.5192766,115.309301 34.1673981,114.002979 33.270108,113.821546 L33.270108,113.821546 Z M53.5802791,127.724944 L53.4326693,127.429271 C53.5802791,127.429271 53.7278891,127.577107 53.8902599,127.577107 C53.8902599,127.724944 53.8902599,127.724944 53.5802791,127.724944 Z M60.1008403,130.937066 L60.1008403,130.715312 C60.6243669,130.715312 60.9123062,130.567475 61.1740696,130.715312 L60.1008403,130.937066 Z M61.0264598,129.72126 C61.0264598,129.511049 61.0264598,129.069606 61.1740696,128.649184 C61.1740696,128.859395 61.3216795,129.300838 61.3216795,129.511049 C61.1888306,129.384923 61.1888306,129.72126 61.0264598,129.72126 L61.0264598,129.72126 Z M68.1369719,131.015091 L67.8752088,130.719418 C67.8752088,130.719418 67.6134454,130.719418 67.6134454,130.867255 C67.6134454,130.719418 67.6134454,130.571582 67.8752088,130.719418 C67.6134454,130.571582 67.8752088,130.571582 67.8752088,130.719418 C68.1369719,130.571582 68.3987353,130.571582 68.6866747,130.571582 C68.6604984,130.719418 68.398735,130.867255 68.1369719,131.015091 L68.1369719,131.015091 Z M95.6933463,128.817717 C95.6933463,128.669881 95.517407,128.669881 95.517407,128.669881 C95.8692854,128.669881 96.4146969,128.374208 96.5906363,128.522044 C96.4146971,128.669881 96.0628186,128.817717 95.6933463,128.817717 Z M103.340136,125.432954 L104.103241,126.505031 C103.780389,126.098941 102.430279,125.774069 103.340136,125.432954 L103.340136,125.432954 Z M121.27491,107.47258 C122.1722,106.743219 122.1722,107.711716 122.348139,108.082375 C121.996261,108.632385 121.644382,107.903023 121.27491,107.47258 Z M124.494598,102.308859 C125.026003,102.606658 124.817609,102.159959 125.244816,101.84727 L125.567827,102.919347 C125.349013,102.308859 124.598795,102.770447 124.494598,102.308859 Z M126.641056,101.84727 C127.103141,101.73074 126.790116,100.891724 127.252201,100.775194 L127.714286,101.61421 L126.641056,101.84727 Z M129.809278,88.4672809 C129.661374,88.0100506 128.596461,88.3197873 128.152747,88.6147746 C126.496215,94.4260251 124.455132,99.1605718 121.275183,103.909868 L121.423088,104.367098 C119.766556,104.514592 119.308052,106.328764 118.775596,107.611959 C116.512655,109.116395 115.077981,112.508749 112.356536,114.175427 C112.504441,114.632658 113.258754,114.927645 112.81504,115.237382 C112.060727,114.942394 110.167548,116.889311 110.389405,117.877518 C109.930901,118.025012 110.241501,116.225589 109.487187,117.125301 C108.732874,118.025012 106.839695,118.77723 106.233286,120.134172 C105.774782,119.072217 105.168373,120.591402 104.872564,121.196126 C102.225071,121.653356 99.9621312,124.36724 96.2497259,125.193205 C96.2497259,125.193205 96.3976305,125.650435 95.9539167,125.945422 C95.8060121,125.488192 96.2497259,125.193205 96.2497259,125.193205 C93.9867856,126.092916 92.0936069,126.402653 90.8807892,127.612101 C90.7328847,127.612101 90.58498,127.759594 90.4222849,127.759594 L90.1264758,127.007377 C89.0615627,127.464607 88.1593448,127.759594 87.4789836,127.464607 C87.0204794,127.921837 86.8725747,128.364318 86.8725747,128.674055 L86.5767655,128.674055 C86.5767655,128.379068 86.5767655,128.069331 86.4288609,127.774344 C84.7723296,127.921837 84.3138252,128.069331 83.1749599,127.921837 C83.3228644,128.379068 84.0771778,128.674055 83.6334641,128.983792 C82.7312461,128.231574 81.8142375,128.526561 80.6162103,128.526561 C80.7641149,128.983792 81.3705238,129.278779 81.0747147,129.426273 L80.7789055,129.426273 C80.92681,129.278779 80.92681,129.131285 80.7789055,128.969042 C79.1223741,129.116536 78.1314133,129.426273 76.9185956,129.426273 C76.7706911,129.426273 76.7706911,129.573766 76.7706909,129.72126 L76.4748817,129.72126 L76.4748817,129.573766 C76.1790725,129.573766 75.8684728,129.573766 75.7205683,129.72126 L74.5077507,129.72126 C72.9991238,129.72126 71.3278019,129.72126 69.8931274,129.26403 L69.8931274,129.559017 C69.4346232,129.559017 69.138814,129.411524 68.5324051,129.411523 C67.9259962,128.954293 67.3195875,129.116536 66.7131786,129.559017 C65.6482655,128.349569 64.1396387,128.954293 62.7049641,128.054582 C62.4091549,128.349569 62.2464599,128.659306 62.0985553,128.806799 C61.8027461,128.806799 61.4921465,128.659306 61.1963372,128.659306 C61.3442418,128.659306 61.4921465,128.511812 61.6548416,128.364318 C56.2859049,126.712389 51.3754723,125.797929 46.3023447,121.80085 C45.5480312,121.653357 44.4831182,120.443908 43.5069479,120.738896 C43.9654521,120.443908 43.9654521,120.443908 43.6548525,119.986678 C41.5398167,118.924724 39.646638,115.842106 37.3836977,115.532369 C36.9251935,114.780151 36.3187846,113.88044 35.4165666,113.113473 L129.824069,75.0453571 C129.676164,78.5852051 129.21766,81.9038126 128.463346,85.0011798 C129.054965,86.5056152 130.105087,87.7150632 129.809278,88.4672809 L129.809278,88.4672809 Z M101.915365,143.658255 C102.372956,143.448044 102.062975,143.122217 102.062975,142.586178 C101.767755,142.79639 101.605385,143.332428 101.915365,143.658255 Z M52.5882353,146.645338 C52.5882353,146.793174 52.7191169,146.941011 52.719117,147.103631 C53.1248499,146.955795 53.3866132,146.955795 53.6614646,147.103631 C53.3866132,146.334882 52.719117,147.088848 52.5882353,146.645338 Z M133.830651,121.438005 L133.080432,121.995041 L133.403443,123.288801 L134.153661,122.731765 C134.039045,121.977072 134.039045,120.521591 133.830651,121.438005 Z M102.656907,140.442025 L101.956783,140.919799 L102.519627,141.514102 C102.931465,141.222777 103.357031,140.978064 102.656907,140.442025 Z M133.080432,118.074834 L133.675375,120.072571 C134.037006,119.922366 133.908685,119.306522 134.153661,118.690678 C133.675374,118.375246 133.850358,117.609196 133.080432,118.074834 Z M124.494598,129.72126 C124.915277,130.039121 124.494598,131.342353 125.567331,130.531806 C125.588365,129.880191 124.936311,129.72126 124.494598,129.72126 Z M1.35095239,63.3761809 C2.56196482,63.5239454 0.893130645,62.3122767 2.41428043,62.9181111 C2.56196482,63.3761809 2.26659603,64.1297797 2.70964922,65.0311431 C2.70964922,65.0311431 4.36371499,66.0950473 3.31515551,66.5383407 C3.61052445,65.7847419 2.85733376,65.4744365 2.70964922,65.0311431 L1.20326785,65.6369773 L1.20326785,66.2428117 C1.66108959,66.1689295 1.73493179,66.5383407 1.58724754,67.3067159 C2.65057558,66.8486461 1.73493194,66.0950473 2.19275368,65.9472827 L2.65057543,67.0111869 L1.58724754,67.3067159 L1.20326785,66.3314703 C1.27711005,67.1589513 1.27711005,68.0750911 1.20326785,68.9764545 L1.12942565,68.9025721 C1.05558345,69.1242189 1.05558345,69.2867597 1.12942565,69.3606421 L1.12942565,68.9764545 C1.35095239,69.2719834 2.26659588,69.0503367 1.95645853,69.6561709 C2.70964922,69.9516999 1.80877414,69.1981011 2.25182747,68.9025721 L3.00501816,69.1981011 C2.54719641,69.3458655 3.4628399,70.2620053 2.25182747,70.0994643 C2.39951187,70.5575341 1.95645853,70.8530631 2.10414308,71.311133 C2.56196482,71.1633686 3.00501816,72.0647318 3.9206618,71.7692029 C3.46284005,70.7052987 3.16747111,71.4736739 3.01978657,71.0156041 C3.47760831,70.8678396 2.56196482,69.9516999 3.16747111,69.8039355 C3.16747111,69.8039355 3.31515551,70.2620053 3.9206618,70.0994643 C4.21603074,65.4892129 4.52616809,60.8789614 6.34268666,56.6528976 L5.73718052,55.1457 L6.78574,54.6876302 C6.18023371,53.1804326 8.60225872,52.2642928 7.84906803,50.2251432 L8.91239607,49.7670734 C8.76471167,48.1121114 9.37021781,46.7526782 9.9757241,45.3045864 C11.0390521,43.6496244 11.4821055,41.9060037 12.6192757,40.8420993 C12.9146446,40.0885005 13.224782,39.4826661 13.5201509,38.7290675 C14.583479,38.2709977 13.6678353,37.5173989 15.0265323,36.9115645 C15.1742167,36.3057301 15.3219012,35.6998959 15.6320385,35.1679437 C15.6320385,35.1679437 15.5581963,35.2418259 15.4843541,35.2418259 C14.583479,34.4882272 14.8788478,33.8823928 15.3366697,33.5868639 C15.6320386,34.1926983 15.7944914,34.6507681 15.7944914,34.8724148 C15.7944914,34.946297 15.7206492,35.0201792 15.646807,35.0940615 C15.7206492,35.0201793 15.7206492,34.9462971 15.7944914,34.8724148 C17.1531884,32.301313 19.7228978,30.4099278 20.5499307,27.9274848 C26.0585606,23.4649978 29.7654403,18.5592174 36.1749453,14.7912235 C36.4703142,14.0376247 35.4217546,14.4956945 35.7171234,13.7273193 C37.5336421,12.9737205 39.5716874,12.0723573 41.6835751,11.0823351 C41.8312595,10.4765008 41.5358907,9.87066654 42.141397,10.0184311 C42.2890814,10.3139601 42.141397,10.6242655 42.141397,10.7720299 C45.5381393,9.11706789 49.1564083,7.37344711 53.1586568,6.16177836 C53.1586568,6.16177836 53.0109724,5.70370855 53.4540257,5.40817957 C53.9118474,6.47208375 54.2072164,5.70370855 54.3549008,6.16177836 C56.1714195,4.80234519 57.8993275,5.26041515 58.6525183,4.34427538 C59.405709,4.63980436 62.6547669,4.49203979 62.0492606,2.98484235 L62.5070823,4.04874639 C62.8024513,3.90098198 63.1125886,3.82709962 63.3341152,3.75321756 C63.555642,3.82709977 63.791937,3.82709977 64.0134637,3.75321756 L63.9396215,3.75321756 C63.7919371,3.75321756 63.555642,3.82709977 63.3341152,3.90098198 C63.0387463,3.82709977 62.7286089,3.60545299 62.6547669,3.36902996 L63.555642,2.91096 L63.9396215,3.81232336 C64.1611482,3.81232336 64.3974432,3.81232336 64.61897,3.96008777 C64.4712856,3.50201796 63.8657793,3.66455879 63.7180949,3.20648898 C64.7814229,2.74841917 64.0134638,2.45289018 64.4712856,2.30512577 C64.9291073,3.36902996 64.1759167,3.05872456 64.3236011,3.51679437 C64.7814228,3.36902996 65.0767917,3.81232336 65.2244763,4.27039317 C67.3363639,3.97486419 68.4735342,4.12262875 70.1275999,3.97486419 C70.1275999,3.97486419 69.9799155,3.51679437 70.4229687,3.22126539 C69.2119563,3.07350097 70.7183377,2.4676666 69.3596407,1.86183237 L70.2605159,1.56630339 L70.7183377,2.0243732 C70.8660221,2.17213761 71.1761594,2.31990218 71.1761594,2.31990218 C70.9546327,2.39378439 70.8807905,2.70408978 70.7183377,2.99961877 L70.7921799,2.92573656 L71.5453706,3.07350097 C71.5453706,3.07350097 71.0875488,3.22126539 71.2500018,3.82709977 C71.7078235,3.67933535 71.7078235,3.67933535 72.0031925,4.12262875 C73.0665205,3.66455894 72.2985614,3.36902996 72.7563831,3.22126539 L73.0517519,4.28516958 C80.6722694,3.53157079 86.8602478,4.89100396 93.2106792,6.39820155 C93.0629948,5.94013173 93.3583636,5.18653294 93.9638699,5.49683833 C93.5060482,5.64460275 94.2592389,6.39820155 93.9638699,6.70850694 C94.1115543,6.70850694 94.2592389,6.56074252 94.4216917,6.56074238 C94.5693761,5.34907377 93.9638699,3.91575839 93.3583636,2.4085608 C92.2950356,2.86663061 91.9996666,1.80272642 90.714812,2.86663076 L90.2569901,1.80272657 C84.9108131,1.22644517 79.9929211,0.310305395 74.7944285,0.162540977 C74.3366067,0.310305395 74.6467441,1.37420958 74.0412378,1.06390419 L73.7458688,0 C71.7668973,0.768375207 69.7288518,-0.132988005 67.9271017,1.22644517 C68.532608,1.07868075 68.532608,1.07868075 68.6802924,1.521974 C68.6802924,1.66973842 68.532608,1.66973842 68.3849234,1.66973857 C69.2857985,1.81750298 69.2857985,1.81750298 69.7436204,2.73364276 C69.2857986,2.88140717 68.9904297,2.43811377 68.3110812,1.9061616 C68.3849234,1.98004381 68.3849234,1.8322794 68.5326078,1.8322794 L68.237239,1.8322794 C67.4840483,2.43811377 66.7308577,2.89618358 66.5831731,3.48724155 C66.4354887,2.88140717 66.5831731,2.58587834 66.7308577,2.2755728 L66.7308577,2.42333736 C66.7308577,2.42333736 67.0262266,2.12780838 67.3363638,1.9652674 L67.6317327,1.9652674 C67.4840483,1.50719759 67.9271017,1.21166861 67.4840483,0.310305395 C64.3088326,1.06390419 61.5175966,1.06390419 57.9731698,1.9652674 C58.2685387,2.42333721 58.4309916,2.86663061 57.9731698,3.02917159 C58.1208542,1.81750298 57.0722947,2.2755728 56.1566511,2.57110178 C56.3043355,3.02917159 56.6144728,3.63500597 55.5511448,3.93053495 L54.9456387,2.42333736 C52.833751,2.71886634 51.9328759,4.84667472 50.7957057,3.48724155 C49.4370087,4.55114574 49.2893243,4.09307593 48.5361336,4.99443914 C47.1774366,4.38860476 44.3862006,6.05834333 42.4219974,6.95970654 C42.274313,8.17137515 41.8164911,8.31913971 42.5696819,8.61466855 C42.5696819,8.61466855 41.8164912,9.51603176 41.5063539,9.07273836 C41.3586695,8.61466855 41.8017228,8.31913956 41.6540383,7.86106975 C38.4788226,8.61466855 37.5041053,10.1218661 34.4765742,11.2596525 C34.6242585,11.7177223 34.1812052,12.0132513 34.3288896,12.4713213 C32.6748238,12.6190857 30.1789566,14.7321177 29.1156286,16.3279739 C28.0523006,16.7860437 28.3624379,16.0324449 27.9046162,16.1802095 C26.5459192,17.2441137 24.8918534,18.6035468 23.6069986,19.5787922 C23.754683,20.0368621 24.5078737,20.332391 24.0648205,20.6426964 C23.0014925,19.2832633 22.5584392,21.2485308 22.1006173,21.3962952 C22.1006173,21.3962952 23.0014924,22.149894 22.5584392,22.4601994 C22.1006174,22.7557284 22.4107548,20.8052374 21.6575639,21.7066006 C21.362195,22.4601994 21.5098795,22.9182692 21.0520578,23.0660336 C12.2205278,31.5772672 7.16971969,41.5513687 3.38899771,52.1165284 C3.5366821,52.5745982 4.60001014,52.2642928 4.74769468,52.7223628 C3.8468196,53.1804326 4.60001029,53.4759616 3.994504,53.623726 C3.8468196,53.1656562 3.69913506,52.7223628 3.24131331,52.8701272 C3.53668225,53.1656562 3.8468196,53.7714904 3.53668225,53.9340314 C3.38899785,54.0817958 3.24131331,54.0817958 3.07886036,54.0817958 C3.07886036,54.0817958 3.22654475,54.3773248 3.2265449,54.6876302 C3.3742293,55.1457 2.47335421,55.5889934 2.62103861,56.0470634 L3.07886036,56.9484266 C3.07886036,56.9484266 2.01553232,57.4064964 2.32566967,57.8497898 C2.32566967,57.8497898 2.78349142,58.913694 2.47335421,59.5047519 C1.72016353,60.4061151 2.17798527,60.2583507 1.86784792,60.864185 C1.57247898,61.4700193 1.11465724,61.7655482 1.11465724,61.7655483 C0.893130497,62.4748177 1.64632118,62.7703467 1.35095239,63.3761809 Z M80.4921969,2.14415306 C80.1403184,1.89798266 79.5949068,1.51641864 79.4189676,1.25793975 C80.1403185,0.630205335 79.9467853,1.76258904 80.4921969,2.14415306 Z M79.4054087,1.07207653 C79.5530185,1.47737373 79.8629993,1.86959686 79.2577987,2.14415306 C79.2577987,1.86959686 79.1101889,1.20281753 79.4054087,1.07207653 Z M76.379521,1.09709266 C76.8333346,0.969402406 77.1261176,1.35247329 77.272509,1.74831318 L76.2184903,2.14415306 C76.086738,1.74831318 76.6869431,2.00369368 76.379521,1.09709266 Z M72.0967743,2.14415306 C72.4429773,2.14415306 72.8064904,2.40563503 72.9795918,2.95474762 L72.4429773,3.21622959 C72.6160787,2.40563529 72.2698759,2.40563529 71.9063625,2.40563529 C71.9236727,2.43178343 72.0967743,2.43178343 72.0967743,2.14415306 Z M45.6045093,8.54307101 C45.6045093,8.54307101 45.9457217,7.83120021 45.0756303,7.53807693 C46.3039947,7.25891187 46.4746008,8.82223607 45.6045093,8.54307101 Z M6.42065513,51.4596734 C6.56711462,52.0418578 5.82017098,53.1874466 5.36614646,52.0418578 L6.42065513,51.4596734 Z M86.9315726,147.946561 C86.9315726,148.409347 86.9315726,149.61259 88.0048019,148.663879 C87.7430387,148.177954 87.1933358,148.177954 86.9315726,147.946561 Z M140.515019,37.4589751 C140.656383,36.753815 140.656383,36.0486548 140.076792,35.3434946 C139.355838,35.9103882 139.935429,36.0486548 139.638565,36.3390149 C139.497202,35.7721214 138.776248,35.0669612 138.479385,34.6383345 C138.762112,34.7766011 139.200339,34.7766011 139.497202,34.5000677 C139.214475,34.361801 138.917611,34.071441 138.634885,33.7949075 L138.196658,34.071441 C138.196658,33.9331743 138.338021,33.7949075 138.479385,33.7949075 C137.617067,32.9514807 136.896113,31.8176937 136.01966,31.9559605 L136.740614,31.3890671 C136.59925,31.2508004 136.302387,31.2508004 136.01966,31.3890671 L135.736933,31.1125337 C135.157342,31.5411604 134.719115,30.974267 134.436389,31.1125337 C134.436389,31.5411604 134.874615,31.6794272 135.454206,31.679427 C135.015979,31.9559605 134.733252,32.2463205 134.295025,32.522854 C134.295025,32.522854 134.295025,32.3845873 134.153661,32.3845872 C134.153661,32.3845872 134.153661,32.5228538 134.295025,32.522854 L134.153661,32.522854 C134.436389,33.0897475 134.733252,33.5183742 135.171479,33.9331743 C135.171479,33.9331743 135.171479,33.7949077 135.312842,33.7949075 C135.312842,33.8640409 135.312842,33.9331742 135.383524,34.0023076 L135.312842,33.9331743 C135.171479,34.2097078 135.312842,34.6383345 135.312842,35.2052279 C135.680387,34.9978277 135.963114,35.2052279 136.330659,35.0669612 C136.189296,35.702988 136.259978,36.3390149 136.472023,36.7676416 C136.91025,36.4911082 136.91025,35.7721214 137.192977,36.2007481 C137.631204,36.3390147 137.33434,36.7676416 136.91025,37.044175 L138.210794,38.592762 C139.00243,38.6618954 139.58202,36.9059083 140.515019,37.4589751 L140.515019,37.4589751 Z M136.30012,34.0403433 C136.650086,34.1881797 137.023383,34.3360163 137.373349,34.5725546 C136.533431,34.4099345 136.416775,34.4099345 136.30012,34.0403433 Z M141.628478,40.3893179 C140.674067,38.9559983 141.495921,38.0645434 140.54151,37.5226785 C140.130584,37.8722688 139.86547,38.2393384 139.189429,38.2393384 C139.454543,38.7812031 139.454543,39.672658 139.732913,40.0222482 C138.645945,40.3718385 137.837347,37.8722688 139.056872,40.7389081 C139.467799,40.3893179 140.143839,40.3893179 140.753602,39.672658 C140.674068,39.9348507 141.893592,40.9137031 141.628478,40.3893179 Z M139.445996,33.3082906 L139.593613,33.160447 C139.445996,33.160447 139.445996,33.160447 139.445996,33.3082906 Z" id="形状" fill="url(#linearGradient-3)" fill-rule="nonzero"></path>
                        <text id="已参加" transform="translate(76.452176, 73.481846) rotate(-21.000000) translate(-76.452176, -73.481846) " font-family="PingFangSC-Regular, PingFang SC" font-size="24" font-weight="normal" fill="#8E02B8">
                            <tspan x="40.1496552" y="81.981846">已参加</tspan>
                        </text>
                    </g>
                </g>
            </g>
        </g>
    </g>
</svg>